<?xml version="1.0" encoding="utf-8"?>
<!-- Generator: Adobe Illustrator 22.0.0, SVG Export Plug-In . SVG Version: 6.00 Build 0)  -->
<svg version="1.1" id="Layer_1" xmlns="http://www.w3.org/2000/svg" xmlns:xlink="http://www.w3.org/1999/xlink" x="0px" y="0px"
	 viewBox="0 0 348 348" style="enable-background:new 0 0 348 348;" xml:space="preserve">
<style type="text/css">
	.st0{fill:none;stroke:#000000;stroke-width:2;}
	.st1{fill:none;stroke:#000000;}
</style>
<path class="st0" d="M5.1,5.8H342v337.7H5.1L5.1,5.8z"/>
<path class="st0" d="M285.7,41.6c0-8.4,7-15.2,15.6-15.2c4.1,0,8.1,1.6,11,4.4c2.9,2.8,4.6,6.7,4.6,10.7c0,8.4-7,15.2-15.6,15.2
	C292.7,56.7,285.7,49.9,285.7,41.6L285.7,41.6z"/>
<path class="st0" d="M126.1,269.3h94c23.1-15.3,38.3-41.4,38.3-71.2c0-41.9-30.3-76.8-70.1-83.9V87.3h-31.8v27.2
	c-39.2,7.7-68.7,42.2-68.7,83.7C87.8,227.8,103,254,126.1,269.3z"/>
<rect x="54" y="269.3" class="st0" width="237.5" height="41"/>
<polygon class="st0" points="223.5,79.8 188.3,87.3 156.5,87.3 43,78.3 43,34.3 223.5,34.3 "/>
<rect x="45.5" y="93.8" class="st0" width="42.3" height="17"/>
<rect x="97" y="93.8" class="st0" width="42" height="17"/>
<rect x="54" y="41.6" class="st0" width="135.4" height="30.7"/>
<rect x="194.8" y="45.1" class="st1" width="10.6" height="10.6"/>
<rect x="194.8" y="58.6" class="st1" width="10.6" height="10.9"/>
<rect x="208.3" y="51.9" class="st1" width="10.6" height="10.6"/>
<rect x="74" y="277.5" class="st0" width="27.1" height="27.1"/>
<rect x="165.7" y="278.5" class="st0" width="14.8" height="27.1"/>
<circle class="st0" cx="258" cy="290.7" r="13.9"/>
</svg>
